<svg xmlns="http://www.w3.org/2000/svg" viewBox="0 0 512.001 512.001"  xmlns:v="https://vecta.io/nano"><style><![CDATA[.B{fill:#ff4b55}.C{fill:#f5f5f5}]]></style><path d="M0 311.908h512v102.988a8.83 8.83 0 0 1-8.828 8.828H8.828A8.83 8.83 0 0 1 0 414.896V311.908z" fill="#41479b"/><path d="M8.828 88.276h494.345a8.83 8.83 0 0 1 8.828 8.828v102.988H0V97.104a8.83 8.83 0 0 1 8.828-8.828z" class="B"/><path d="M0 200.09h512V311.9H0z" class="C"/><g class="B"><path d="M194.21 203.03h24.717v28.25H194.21zm49.43 0h24.717v28.25H243.64z"/><path d="M218.92 231.28h24.717v28.25H218.92zm74.15-28.25h24.717v28.25H293.07z"/><path d="M268.36 231.28h24.717v28.25H268.36z"/></g><g class="C"><path d="M218.92 203.03h24.717v28.25H218.92zm49.44 0h24.717v28.25H268.36z"/><path d="M194.21 231.28h24.717v28.25H194.21zm49.43 0h24.717v28.25H243.64zm49.43 0h24.717v28.25H293.07z"/></g><g class="B"><path d="M243.64 259.53h24.717v28.25H243.64z"/><path d="M218.92 287.78h24.717v28.25H218.92zm49.44 0h24.717v28.25H268.36z"/></g><g class="C"><path d="M218.92 259.53h24.717v28.25H218.92zm49.44 0h24.717v28.25H268.36z"/><path d="M243.64 287.78h24.717v28.25H243.64z"/></g><g class="B"><path d="M317.792 203.035v79.448c0 34.127-27.666 61.793-61.793 61.793s-61.793-27.666-61.793-61.793v-79.448h123.586m4.414-4.414H189.792v83.862c0 36.506 29.7 66.207 66.207 66.207s66.207-29.7 66.207-66.207v-83.862z"/><path d="M218.924 287.779v-28.248h-24.717v22.952c0 1.789.118 3.546.267 5.297l24.45-.001z"/></g><path d="M317.525 287.779h-24.45v28.248h14.774c5.362-8.269 8.795-17.886 9.676-28.248zM204.15 316.027h14.774V287.78h-24.45a61.36 61.36 0 0 0 9.676 28.247z" class="C"/><path d="M293.075 287.779h24.45l.267-5.297V259.53h-24.717v28.249zm-74.151 44.054v-15.806H204.15c3.959 6.107 8.973 11.441 14.774 15.806zm88.925-15.806h-14.774v15.806c5.802-4.365 10.816-9.699 14.774-15.806z" class="B"/><path d="M218.924 331.833c7.194 5.415 15.567 9.345 24.717 11.202v-27.008h-24.717v15.806zm49.434 11.202c9.15-1.857 17.523-5.788 24.717-11.202v-15.806h-24.717v27.008z" class="C"/><path d="M268.358 316.027h-24.717v27.008c3.993.811 8.126 1.241 12.359 1.241a62.05 62.05 0 0 0 12.359-1.241l-.001-27.008z" class="B"/><path d="M211.27 156.292c-5.378-.832-10.88-1.432-16.489-1.779a189.97 189.97 0 0 0-12.398 11.15l11.823 28.545c7.913-3.277 16.021-5.9 24.247-7.866l-7.183-30.05zm59.733-4.687a184.94 184.94 0 0 0-15.002-6.765c-5.165 2.06-10.17 4.321-15.002 6.765l2.41 30.803c8.382-.657 16.804-.657 25.186 0l2.408-30.803zm58.613 14.058a190.81 190.81 0 0 0-12.398-11.15c-5.609.346-11.111.947-16.489 1.779l-7.183 30.049a161.57 161.57 0 0 1 24.247 7.866l11.823-28.544z" fill="#4173cd"/><path d="M240.997 151.605a183.1 183.1 0 0 0-15.894-4.346c-4.798 2.841-9.411 5.858-13.832 9.033l7.185 30.049c8.226-1.967 16.569-3.277 24.952-3.933l-2.411-30.803zm59.732 4.687a187.24 187.24 0 0 0-13.832-9.033 183.72 183.72 0 0 0-15.894 4.346l-2.41 30.803a161.32 161.32 0 0 1 24.952 3.933l7.184-30.049z" fill="#41479b"/><path d="M241.96 163.926c-9.345.73-18.646 2.191-27.817 4.385l-1.437-6.01c9.485-2.266 19.105-3.778 28.771-4.535l.483 6.16zm.965 12.321c-8.703.681-17.366 2.042-25.907 4.084l-1.437-6.009a173.6 173.6 0 0 1 26.862-4.234l.482 6.159z" class="B"/><path d="M285.326 178.321l-6.482-1.022c-3.562-.492-6.215-3.516-5.906-6.915h0c.308-3.398 3.713-5.863 7.59-5.327l6.959 1.097c3.859.682 6.357 4.082 5.604 7.406h0c-.751 3.331-4.217 5.386-7.765 4.761z" fill="#ffe15a"/><path d="M320.157 188.498a167.81 167.81 0 0 0-25.175-8.168l1.437-6.009a173.74 173.74 0 0 1 26.103 8.468l-2.365 5.709z" class="B"/><path d="M317.952 169.96c-.873 2.407-3.817 3.552-6.599 2.647s-4.483-3.55-3.779-6.012 3.686-3.765 6.636-2.806 4.615 3.764 3.742 6.171zm-113.527-3.364c.703 2.464-1 5.109-3.779 6.012s-5.725-.245-6.599-2.647c-.874-2.408.79-5.214 3.742-6.17s5.934.344 6.636 2.805zm50.165-4.047c.006 2.047-1.834 3.714-4.114 3.784s-4.222-1.481-4.342-3.52 1.719-3.806 4.111-3.883 4.335 1.572 4.345 3.619zm11.275.264c-.121 2.044-2.065 3.593-4.342 3.52s-4.119-1.737-4.114-3.784 1.953-3.697 4.344-3.619c2.393.072 4.23 1.842 4.112 3.883zm-5.858 9.267c-.057 2.047-1.85 3.657-4.008 3.657s-3.949-1.609-4.008-3.657c-.056-2.041 1.737-3.755 4.008-3.749 2.271-.005 4.064 1.707 4.008 3.749z" fill="#ffe15a"/></svg>