<?xml version="1.0" encoding="UTF-8" standalone="no"?>
<!DOCTYPE svg PUBLIC "-//W3C//DTD SVG 1.1//EN" "http://www.w3.org/Graphics/SVG/1.1/DTD/svg11.dtd">
<svg width="100%" height="100%" viewBox="0 0 512 512" version="1.1" xmlns="http://www.w3.org/2000/svg" xmlns:xlink="http://www.w3.org/1999/xlink" xml:space="preserve" xmlns:serif="http://www.serif.com/" style="fill-rule:evenodd;clip-rule:evenodd;stroke-linejoin:round;stroke-miterlimit:2;">
    <g>
        <g id="Page-1">
            <g id="_033---Knife" serif:id="033---Knife">
                <path id="Shape" d="M64.613,469.989C44.319,468.438 24.768,461.684 7.845,450.377C3.452,457.699 0.77,465.919 0,474.423C0,497.49 20.014,504.366 32,506.423C61.367,511.442 101.056,497.545 110.281,471.406C110.784,469.989 111.424,468.489 111.991,467.026C101.862,469.652 91.433,470.943 80.969,470.866C75.505,470.855 70.046,470.562 64.613,469.989Z" style="fill-rule:nonzero;"/>
                <path id="Shape1" serif:id="Shape" d="M38.665,405.129C38.555,405.248 38.482,405.394 38.363,405.513C30.181,415.881 23.067,425.627 17.234,434.56C31.773,444.696 48.809,450.659 66.496,451.803C95.415,454.775 116.526,448.375 124.416,441.015C155.647,388.527 198.619,343.991 249.957,310.903L191.333,245.458C136.841,295.116 85.831,348.466 38.665,405.129ZM82.286,425.143C77.236,425.143 73.143,421.049 73.143,416C73.143,410.951 77.236,406.857 82.286,406.857C87.335,406.857 91.429,410.951 91.429,416C91.429,421.049 87.335,425.143 82.286,425.143ZM201.143,306.286C201.143,311.335 197.049,315.429 192,315.429C186.951,315.429 182.857,311.335 182.857,306.286C182.857,301.236 186.951,297.143 192,297.143C197.049,297.143 201.143,301.236 201.143,306.286Z" style="fill-rule:nonzero;"/>
                <path id="Shape2" serif:id="Shape" d="M356.928,192.393C413.026,152.9 453.12,94.616 469.943,28.105C390.696,77.955 315.996,134.693 246.711,197.659L287.552,243.255L356.928,192.393Z" style="fill-rule:nonzero;"/>
                <path id="Shape3" serif:id="Shape" d="M495.049,12.443L491.291,14.747C485.047,52.699 460.891,138.88 367.735,207.15L299.813,256.914L312.101,270.629C329.582,257.829 351.415,241.874 378.587,221.897C460.261,162.011 498.231,83.099 508.809,21.669C509.352,18.16 507.814,14.654 504.865,12.677C501.916,10.7 498.089,10.609 495.049,12.443Z" style="fill-rule:nonzero;"/>
                <path id="Shape4" serif:id="Shape" d="M232.11,208.759C230.492,206.95 228.221,205.858 225.798,205.724C223.375,205.59 220.998,206.426 219.191,208.046L205.568,220.242C201.815,223.612 201.5,229.385 204.864,233.143L272.137,308.251C275.508,312.01 281.287,312.326 285.047,308.955L298.661,296.759C300.47,295.141 301.561,292.871 301.695,290.447C301.829,288.024 300.994,285.647 299.374,283.84L232.11,208.759Z" style="fill-rule:nonzero;"/>
            </g>
        </g>
    </g>
</svg>
