<?xml version="1.0" encoding="UTF-8" standalone="no"?>
<!DOCTYPE svg PUBLIC "-//W3C//DTD SVG 1.1//EN" "http://www.w3.org/Graphics/SVG/1.1/DTD/svg11.dtd">
<svg width="100%" height="100%" viewBox="0 0 512 512" version="1.1" xmlns="http://www.w3.org/2000/svg" xmlns:xlink="http://www.w3.org/1999/xlink" xml:space="preserve" xmlns:serif="http://www.serif.com/" style="fill-rule:evenodd;clip-rule:evenodd;stroke-linejoin:round;stroke-miterlimit:2;">
    <g>
        <g>
            <path d="M5.886,444.266L52.668,499.646C52.668,499.646 69.18,523.008 81.051,505.492C92.923,488.016 164.091,343.75 164.091,343.75C164.091,343.75 171.222,331.979 176.224,353.011C181.226,374.042 222.304,475.803 222.304,475.803C222.304,475.803 228.511,484.38 235.963,478.053C243.436,471.786 273.325,446.576 273.325,446.576C273.325,446.576 283.409,443.382 272.964,423.456C262.498,403.469 224.152,312.555 224.152,312.555C224.152,312.555 218.548,300.905 226.663,294.075C234.758,287.266 245.223,279.452 245.223,279.452C245.223,279.452 249.883,269.83 262.719,279.974C275.535,290.098 312.294,327.319 368.92,341.32C425.525,355.361 475.08,357.249 475.08,357.249C475.08,357.249 487.213,357.691 488.92,336.981C490.688,316.372 489.663,287.366 489.663,287.366C489.663,287.366 490.828,273.546 478.676,273.144C466.563,272.723 445.994,277.343 420.061,269.348C394.129,261.393 335.535,218.528 335.535,218.528C335.535,218.528 326.134,211.156 334.852,203.764C343.57,196.412 404.574,144.948 404.574,144.948C404.574,144.948 415.04,137.135 408.732,129.662C402.445,122.21 399.291,118.474 399.291,118.474L510.092,24.908L489.04,0L378.24,93.526L369.141,85.31C369.141,85.31 361.045,78.259 354.196,84.044C347.366,89.749 275.856,149.046 275.856,149.046C275.856,149.046 255.709,127.734 240.784,140.328C225.859,152.923 135.005,229.696 135.005,229.696C135.005,229.696 131.048,235.14 134.162,246.368C137.255,257.637 142.94,265.592 137.335,270.332C131.751,275.033 102.484,299.76 102.484,299.76C102.484,299.76 94.309,307.734 95.333,322.88C96.378,337.985 88.022,354.577 71.852,368.277C55.702,381.936 9.079,420.222 9.079,420.222C9.079,420.222 -4.6,431.812 5.886,444.266Z" style="fill-rule:nonzero;"/>
            <path d="M425.324,63.415C425.324,63.415 388.223,19.444 381.715,11.771C375.207,4.058 356.285,-2.732 353.975,24.325C351.384,55.481 348.491,97.402 348.491,97.402L380.851,98.467C380.851,98.467 379.264,81.292 376.934,72.675C374.002,61.949 379.084,56.686 384.889,63.596C390.694,70.405 401.601,83.261 401.601,83.261L425.324,63.415Z" style="fill-rule:nonzero;"/>
            <path d="M225.056,327.118C225.056,327.118 235.34,318.441 243.556,311.511C251.772,304.581 259.726,289.013 252.876,268.404C246.047,247.815 272.964,271.357 272.964,271.357C272.964,271.357 287.085,303.737 263,324.045C238.815,344.514 228.129,352.629 228.129,352.629L225.056,327.118Z" style="fill-rule:nonzero;"/>
        </g>
    </g>
</svg>
