<svg xmlns="http://www.w3.org/2000/svg" xmlns:xlink="http://www.w3.org/1999/xlink" viewBox="0 0 512.001 512.001" xmlns:v="https://vecta.io/nano"><path d="M503.172 423.725H8.828A8.83 8.83 0 0 1 0 414.897V97.104a8.83 8.83 0 0 1 8.828-8.828h494.345a8.83 8.83 0 0 1 8.828 8.828v317.793a8.83 8.83 0 0 1-8.829 8.828z" fill="#73af00"/><path d="M251.41 135.209L65.354 248.46c-5.651 3.439-5.651 11.641 0 15.081L251.41 376.793a8.83 8.83 0 0 0 9.18 0l186.057-113.251c5.651-3.439 5.651-11.641 0-15.081L260.59 135.209a8.83 8.83 0 0 0-9.18 0z" fill="#ffe15a"/><circle cx="256" cy="256.001" r="70.62" fill="#41479b"/><g fill="#f5f5f5"><path d="M195.401 219.874c-3.332 5.578-5.905 11.64-7.605 18.077 39.149-2.946 97.062 8.006 133.922 43.773 2.406-6.141 3.994-12.683 4.59-19.522-38.061-32.033-90.68-43.424-130.907-42.328zm63.524 60.226l1.88 5.638 5.943.046c.769.006 1.088.988.47 1.445l-4.781 3.531 1.793 5.666c.232.734-.604 1.341-1.229.893l-4.835-3.456-4.835 3.456c-.626.448-1.461-.159-1.229-.893l1.793-5.666-4.781-3.531c-.619-.457-.3-1.439.469-1.445l5.943-.046 1.88-5.638c.243-.73 1.275-.73 1.519 0z"/><use xlink:href="#B"/><path d="M248.938 269.39l.809 2.426 2.558.02c.331.002.469.425.202.622l-2.058 1.519.771 2.439c.1.316-.259.577-.529.384l-2.081-1.487-2.081 1.487c-.269.193-.629-.068-.529-.384l.771-2.439-2.058-1.519c-.266-.196-.129-.619.202-.622l2.558-.02.809-2.426c.106-.314.551-.314.656 0zm-44.808-2.942l.809 2.426 2.558.02c.331.002.469.425.202.622l-2.058 1.519.771 2.439c.1.316-.259.577-.529.384l-2.081-1.487-2.081 1.487c-.269.193-.629-.068-.529-.384l.771-2.439-2.058-1.519c-.266-.196-.129-.619.202-.622l2.558-.02.809-2.426c.107-.314.551-.314.656 0zm37.484 27.399l.809 2.426 2.558.02c.331.002.469.425.202.622l-2.058 1.519.771 2.439c.1.316-.259.577-.529.384l-2.081-1.487-2.081 1.487c-.269.193-.629-.068-.529-.384l.771-2.439-2.058-1.519c-.266-.196-.129-.619.202-.622l2.558-.02.809-2.426c.107-.313.552-.313.656 0zm-20.624-29.092l.662 1.984 2.092.017c.27.002.383.348.166.509l-1.683 1.242.631 1.994c.082.258-.212.472-.433.314l-1.702-1.216-1.702 1.216c-.221.158-.514-.056-.433-.314l.631-1.994-1.683-1.242c-.217-.161-.106-.507.166-.509l2.092-.017.662-1.984c.085-.257.448-.257.534 0zm62.829-40.961l.828 2.482 2.616.02c.339.002.479.435.206.636l-2.104 1.554.789 2.495c.103.323-.266.59-.541.393l-2.129-1.522-2.129 1.522c-.276.198-.643-.071-.541-.393l.789-2.495-2.104-1.554c-.273-.201-.132-.633.206-.636l2.616-.02.828-2.482c.108-.322.563-.322.67 0zm-76.807 28.823l.662 1.984 2.092.017c.27.002.383.348.166.509l-1.683 1.242.631 1.994c.082.258-.212.472-.433.314l-1.702-1.216-1.702 1.216c-.221.158-.514-.056-.433-.314l.631-1.994-1.683-1.242c-.217-.161-.106-.506.166-.509l2.092-.017.662-1.984c.085-.257.448-.257.534 0zm10.1 27.964l1.002 3.006 3.168.024a.43.43 0 0 1 .25.77l-2.549 1.882.956 3.02a.43.43 0 0 1-.655.476l-2.578-1.842-2.578 1.842a.43.43 0 0 1-.655-.476l.956-3.02-2.549-1.882a.43.43 0 0 1 .25-.77l3.168-.024 1.002-3.006a.43.43 0 0 1 .812 0zm77.791 14.734l.63 1.891 1.993.015a.27.27 0 0 1 .158.484l-1.603 1.184.601 1.9a.27.27 0 0 1-.413.299l-1.621-1.159-1.622 1.159a.27.27 0 0 1-.413-.299l.601-1.9-1.603-1.184a.27.27 0 0 1 .158-.484l1.993-.015.63-1.891a.27.27 0 0 1 .511 0z"/><use xlink:href="#B" x="19.853" y="-13.8"/></g><defs ><path id="B" d="M282.024 294.685l.809 2.426 2.558.02c.331.002.469.425.202.622l-2.058 1.519.771 2.439c.1.316-.259.577-.529.384l-2.081-1.487-2.081 1.487c-.269.193-.629-.068-.529-.384l.771-2.439-2.058-1.519c-.266-.196-.129-.619.202-.622l2.558-.02.809-2.426c.106-.315.551-.315.656 0z"/></defs></svg>