<svg xmlns="http://www.w3.org/2000/svg" viewBox="0 0 512.001 512.001"  xmlns:v="https://vecta.io/nano"><style><![CDATA[.B{fill:#f5f5f5}.C{fill:#ff4b55}.D{fill:#ffe15a}.E{fill:#41479b}]]></style><path d="M0 311.908h512v102.988a8.83 8.83 0 0 1-8.828 8.828H8.828A8.83 8.83 0 0 1 0 414.896V311.908z" class="B"/><path d="M8.828 88.276h494.345a8.83 8.83 0 0 1 8.828 8.828v102.988H0V97.103a8.83 8.83 0 0 1 8.828-8.827z" class="C"/><path d="M0 200.09h512V311.9H0z" class="E"/><path d="M173.021 200.07h-63.559l-2.648-15.89h68.855z" class="D"/><path d="M108.8 196.097l.662 3.973h63.559l.662-3.973z" fill="#ffd350"/><g class="D"><path d="M139.92 147.1h2.648v10.593h-2.648z"/><path d="M137.27 149.75h7.945v2.648h-7.945zm35.958 39.726c-.3 0-.604-.052-.903-.158a2.65 2.65 0 0 1-1.587-3.393l5.61-15.481c.278-.768.212-1.613-.18-2.319-.209-.375-.695-1.035-1.624-1.234-6.839-1.453-20.096-3.897-32.023-3.897h-2.558c-11.927 0-25.184 2.444-32.026 3.9-.926.196-1.414.856-1.622 1.231-.392.706-.458 1.551-.179 2.319l5.608 15.481a2.65 2.65 0 0 1-1.587 3.393c-1.374.491-2.895-.215-3.392-1.588l-5.61-15.481c-.8-2.209-.609-4.648.526-6.694 1.097-1.978 2.973-3.38 5.149-3.843 7.047-1.5 20.718-4.017 33.131-4.017h2.558c12.413 0 26.084 2.516 33.128 4.013 2.179.466 4.055 1.867 5.152 3.846 1.135 2.046 1.326 4.484.527 6.694l-5.611 15.481c-.387 1.078-1.405 1.747-2.487 1.747z"/><path d="M141.251 187.159a2.65 2.65 0 0 1-2.648-2.648v-21.517a2.65 2.65 0 0 1 2.648-2.648 2.65 2.65 0 0 1 2.648 2.648v21.517c.001 1.463-1.185 2.648-2.648 2.648z"/><path d="M159.559 189.476c-.179 0-.36-.018-.541-.054a2.65 2.65 0 0 1-2.055-3.132l3.212-15.481c.418-2.017-.236-3.784-.608-4.094-3.672-1.347-11.039-3.722-17.594-3.722h-1.465c-6.554 0-13.921 2.375-17.73 3.791-.235.241-.889 2.007-.472 4.024l3.212 15.481a2.65 2.65 0 0 1-2.055 3.132c-1.434.277-2.836-.623-3.13-2.056l-3.212-15.481c-.8-3.859.428-8.801 3.808-10.063 5.063-1.882 12.565-4.125 19.578-4.125h1.465c7.014 0 14.516 2.242 19.576 4.122 3.383 1.265 4.611 6.207 3.811 10.066l-3.212 15.481c-.258 1.253-1.36 2.111-2.588 2.111z"/></g><path d="M107.476 188.152h67.531l.662-3.972h-68.855z" fill="#ffd350"/><path d="M90.924 200.07a2.65 2.65 0 0 0-2.648 2.648v92.486c0 29.365 23.713 53.17 52.966 53.17s52.966-23.805 52.966-53.17v-92.486a2.65 2.65 0 0 0-2.648-2.648H90.924z" class="C"/><path d="M146.538 287.464l5.297-13.241-10.593 2.648-10.593-2.648 5.297 13.241-13.241 45.021s7.945 5.297 18.538 5.297 18.538-5.297 18.538-5.297l-13.243-45.021z" class="B"/><path d="M122.061 298.135l-4.673 1.169 10.279-18.501-4.63-2.571-12.485 22.472H98.869v5.297h5.69l-7.344 5.875 3.308 4.138 6.239-4.992-2.461 7.382 5.025 1.675 4.837-14.511 9.183-2.296z" class="D"/><path d="M122.703 226.552l-12.089-6.045a5.3 5.3 0 0 1-2.77-6.022l.684-2.735a3.01 3.01 0 0 0-2.918-3.736c-.914 0-1.778.415-2.348 1.129a44.22 44.22 0 0 0-9.69 27.625v55.991s11.059-2.211 21.048-16.742c1.834-2.668 4.853-4.247 8.072-4.412l-5.286 15.857L128 290.111l9.269-11.03-14.566-52.529z" class="B"/><path d="M160.422 298.135l4.673 1.169-10.279-18.501 4.63-2.571 12.484 22.472h11.684v5.297h-5.691l7.345 5.875-3.308 4.138-6.239-4.992 2.461 7.382-5.026 1.675-4.836-14.511-9.183-2.296z" class="D"/><path d="M159.779 226.552l12.089-6.045a5.3 5.3 0 0 0 2.77-6.022l-.684-2.735a3.01 3.01 0 0 1 2.918-3.736c.914 0 1.778.415 2.348 1.129a44.22 44.22 0 0 1 9.69 27.625v55.991s-11.059-2.211-21.048-16.742c-1.834-2.668-4.853-4.247-8.072-4.412l5.286 15.857-10.593 2.648-9.269-11.03 14.565-52.528z" class="B"/><path d="M125.352 208.014H112.11l3.973 5.297 9.269 2.648-5.297 2.648H128zm31.779 0h13.241l-3.972 5.297-9.269 2.648 5.297 2.648h-7.945z" class="D"/><path d="M158.996 205.938l-12.458 2.076-5.297 10.593-5.297-10.593-12.458-2.076c-1.428-.238-2.524 1.245-1.876 2.54l6.39 12.778-5.297 5.297h37.076l-5.297-5.297 6.389-12.778c.648-1.296-.447-2.779-1.875-2.54z" class="B"/><circle cx="141.24" cy="185.34" r="3.972" fill="#ffbe50"/><ellipse cx="141.19" cy="194.82" rx="3.139" ry="2.207" class="E"/><ellipse cx="125.52" cy="194.82" rx="3.139" ry="2.207" class="C"/><g class="E"><ellipse cx="109.85" cy="194.82" rx="3.139" ry="2.207"/><ellipse cx="172.52" cy="194.82" rx="3.139" ry="2.207"/></g><ellipse cx="156.85" cy="194.82" rx="3.139" ry="2.207" class="C"/><g fill="#ffbe50"><circle cx="159.65" cy="185.34" r="3.972"/><circle cx="174.17" cy="185.34" r="3.972"/><circle cx="122.86" cy="185.34" r="3.972"/><circle cx="108.33" cy="185.34" r="3.972"/></g><path d="M145.803 162.994c.455-.781.735-1.678.735-2.648a5.3 5.3 0 0 0-5.297-5.297 5.3 5.3 0 0 0-5.297 5.297c0 .97.279 1.867.735 2.648h9.124z" class="E"/><path d="M141.241 280.842c-10.953 0-19.862-8.909-19.862-19.862v-35.752h39.724v35.752c0 10.954-8.909 19.862-19.862 19.862z" class="C"/><path d="M159.779 226.552v34.428c0 10.238-8.3 18.538-18.538 18.538s-18.538-8.3-18.538-18.538v-34.428h37.076m2.649-2.648h-42.372v37.076c0 11.682 9.504 21.186 21.186 21.186s21.186-9.504 21.186-21.186v-37.076z" fill="#a54b50"/><g class="B"><path d="M137.269 279.08c1.281.28 2.607.437 3.972.437a18.63 18.63 0 0 0 3.972-.437v-52.529h-7.945c.001 0 .001 52.529.001 52.529z"/><path d="M122.7 248.4h37.08v7.945H122.7z"/></g></svg>