<svg xmlns="http://www.w3.org/2000/svg" xmlns:xlink="http://www.w3.org/1999/xlink" viewBox="0 0 512.001 512.001" xmlns:v="https://vecta.io/nano"><style><![CDATA[.B{fill:#fab446}.C{fill:#c8414b}.D{fill:#f5f5f5}.E{fill:#5064aa}]]></style><path d="M8.828 423.725h494.345a8.83 8.83 0 0 0 8.828-8.828V97.104a8.83 8.83 0 0 0-8.828-8.828H8.828A8.83 8.83 0 0 0 0 97.104v317.793a8.83 8.83 0 0 0 8.828 8.828z" class="C"/><path d="M0 158.901h512v194.21H0z" fill="#ffd250"/><path d="M216.276 256.001l7.485-33.681a4.97 4.97 0 0 0-4.849-6.044h-5.272a4.97 4.97 0 0 0-4.849 6.044l7.485 33.681z" class="C"/><path d="M207.45 238.341h17.655v75.03H207.45z" class="D"/><path d="M203.03 229.521h26.483v8.828H203.03z" class="B"/><path d="M185.38 256.001h44.14v8.828h-44.14zm44.137 35.31l-26.483-8.827v-8.828l26.483 8.828zm-145.655-35.31l7.485-33.681a4.97 4.97 0 0 0-4.849-6.044h-5.272a4.97 4.97 0 0 0-4.849 6.044l7.485 33.681z" class="C"/><path d="M114.759 229.518a8.83 8.83 0 0 0-8.828 8.828v57.379c0 10.725 10.01 30.897 44.138 30.897s44.138-20.171 44.138-30.897v-57.379a8.83 8.83 0 0 0-8.828-8.828h-70.62z" class="D"/><g class="C"><path d="M150.069 273.656h-44.138v-35.31a8.83 8.83 0 0 1 8.828-8.828h35.31v44.138z"/><use xlink:href="#B"/></g><use xlink:href="#B" x="-44.138" class="B"/><path d="M141.241 313.281v-39.625h-8.828v43.693c3.284-.666 6.251-2.12 8.828-4.068zm-17.655 4.068v-43.693h-8.828v39.625c2.578 1.948 5.545 3.402 8.828 4.068z" class="C"/><path d="M114.76 256.001h26.483v8.828H114.76z" fill="#ffb441"/><g class="B"><path d="M114.76 238.341h26.483v8.828H114.76z"/><path d="M119.17 243.591h17.655v15.992H119.17z"/></g><path d="M75.03 238.341h17.655v75.03H75.03z" class="D"/><path d="M70.62 308.971h26.483v8.828H70.62zm0-79.45h26.483v8.828H70.62z" class="B"/><path d="M66.21 317.791h35.31v8.828H66.21z" class="E"/><path d="M207.45 308.971h26.483v8.828H207.45z" class="B"/><path d="M198.62 317.791h35.31v8.828h-35.31z" class="E"/><path d="M123.59 220.691h52.966v8.828H123.59z" class="B"/><path d="M145.66 194.211h8.828v26.483h-8.828z" fill="#ffb441"/><g class="D"><path d="M141.241 207.449A13.26 13.26 0 0 1 128 194.208a13.26 13.26 0 0 1 13.241-13.241 13.26 13.26 0 0 1 13.241 13.241c.001 7.301-5.939 13.241-13.241 13.241zm0-17.655a4.42 4.42 0 0 0-4.414 4.414 4.42 4.42 0 0 0 4.414 4.414 4.42 4.42 0 0 0 4.414-4.414 4.42 4.42 0 0 0-4.414-4.414z"/><use xlink:href="#C"/><use xlink:href="#C" x="17.655" y="8.828"/><path d="M123.586 216.277a13.26 13.26 0 0 1-13.241-13.241 13.26 13.26 0 0 1 13.241-13.241 13.26 13.26 0 0 1 13.241 13.241c.001 7.301-5.939 13.241-13.241 13.241zm0-17.655a4.42 4.42 0 0 0-4.414 4.414 4.42 4.42 0 0 0 4.414 4.414 4.42 4.42 0 0 0 4.414-4.415c0-2.435-1.978-4.413-4.414-4.413z"/></g><path d="M176.552 291.311v4.414a4.42 4.42 0 0 1-4.414 4.414 4.42 4.42 0 0 1-4.414-4.414v-4.414h8.828m8.827-8.827h-26.483v13.241a13.26 13.26 0 0 0 13.241 13.241 13.26 13.26 0 0 0 13.241-13.241l.001-13.241z" class="B"/><path d="M172.138 264.829h0a8.83 8.83 0 0 1-8.828-8.828v-8.828a8.83 8.83 0 0 1 8.828-8.828h0a8.83 8.83 0 0 1 8.828 8.828v8.828a8.83 8.83 0 0 1-8.828 8.828z" fill="#ffa0d2"/><circle cx="150.07" cy="273.651" r="13.241" class="E"/><path d="M145.66 176.551h8.828v26.483h-8.828z" class="B"/><path d="M123.586 220.691l-8.828-8.828 5.171-5.171c7.993-7.993 18.835-12.484 30.14-12.484h0c11.305 0 22.146 4.491 30.14 12.484l5.171 5.171-8.828 8.828h-52.966z" class="C"/><g fill="#ffd250"><circle cx="150.07" cy="211.861" r="4.414"/><circle cx="132.41" cy="211.861" r="4.414"/><circle cx="167.72" cy="211.861" r="4.414"/></g><path d="M70.62 256.001h44.14v8.828H70.62zm.001 35.31l26.482-8.827v-8.828l-26.482 8.828z" class="C"/><defs ><path id="B" d="M150.069 273.656h44.138v22.069c0 12.189-9.88 22.069-22.069 22.069h0c-12.189 0-22.069-9.88-22.069-22.069v-22.069z"/><path id="C" d="M158.897 207.449a13.26 13.26 0 0 1-13.241-13.241 13.26 13.26 0 0 1 13.241-13.241 13.26 13.26 0 0 1 13.241 13.241 13.26 13.26 0 0 1-13.241 13.241zm0-17.655a4.42 4.42 0 0 0-4.414 4.414 4.42 4.42 0 0 0 4.414 4.414 4.42 4.42 0 0 0 4.414-4.414 4.42 4.42 0 0 0-4.414-4.414z"/></defs></svg>